<svg width="179" height="40" viewBox="0 0 179 40" fill="none" xmlns="http://www.w3.org/2000/svg">
<path d="M24.5 13V24.5C24.5 26.71 22.71 28.5 20.5 28.5C18.29 28.5 16.5 26.71 16.5 24.5V12C16.5 10.62 17.62 9.5 19 9.5C20.38 9.5 21.5 10.62 21.5 12V22.5C21.5 23.05 21.05 23.5 20.5 23.5C19.95 23.5 19.5 23.05 19.5 22.5V13H18V22.5C18 23.88 19.12 25 20.5 25C21.88 25 23 23.88 23 22.5V12C23 9.79 21.21 8 19 8C16.79 8 15 9.79 15 12V24.5C15 27.54 17.46 30 20.5 30C23.54 30 26 27.54 26 24.5V13H24.5Z" fill="#211B12"/>
<path d="M47.2784 17.4375H44.7898C44.7443 17.1155 44.6515 16.8295 44.5114 16.5795C44.3712 16.3258 44.1913 16.1098 43.9716 15.9318C43.7519 15.7538 43.4981 15.6174 43.2102 15.5227C42.9261 15.428 42.6174 15.3807 42.2841 15.3807C41.6818 15.3807 41.1572 15.5303 40.7102 15.8295C40.2633 16.125 39.9167 16.5568 39.6705 17.125C39.4242 17.6894 39.3011 18.375 39.3011 19.1818C39.3011 20.0114 39.4242 20.7083 39.6705 21.2727C39.9205 21.8371 40.2689 22.2633 40.7159 22.5511C41.1629 22.839 41.6799 22.983 42.267 22.983C42.5966 22.983 42.9015 22.9394 43.1818 22.8523C43.4659 22.7652 43.7178 22.6383 43.9375 22.4716C44.1572 22.3011 44.339 22.0947 44.483 21.8523C44.6307 21.6098 44.733 21.3333 44.7898 21.0227L47.2784 21.0341C47.214 21.5682 47.053 22.0833 46.7955 22.5795C46.5417 23.072 46.1989 23.5133 45.767 23.9034C45.339 24.2898 44.8277 24.5966 44.233 24.8239C43.642 25.0473 42.9735 25.1591 42.2273 25.1591C41.1894 25.1591 40.2614 24.9242 39.4432 24.4545C38.6288 23.9848 37.9848 23.3049 37.5114 22.4148C37.0417 21.5246 36.8068 20.447 36.8068 19.1818C36.8068 17.9129 37.0455 16.8333 37.5227 15.9432C38 15.053 38.6477 14.375 39.4659 13.9091C40.2841 13.4394 41.2045 13.2045 42.2273 13.2045C42.9015 13.2045 43.5265 13.2992 44.1023 13.4886C44.6818 13.678 45.1951 13.9545 45.642 14.3182C46.089 14.678 46.4527 15.1193 46.733 15.642C47.017 16.1648 47.1989 16.7633 47.2784 17.4375ZM48.9972 25V16.2727H51.4176V19.6591H52.0994L54.4744 16.2727H57.3153L54.2301 20.6023L57.3494 25H54.4744L52.321 21.9034H51.4176V25H48.9972ZM60.8608 25.1648C60.304 25.1648 59.8078 25.0682 59.3722 24.875C58.9366 24.678 58.5919 24.3883 58.3381 24.0057C58.0881 23.6193 57.9631 23.1383 57.9631 22.5625C57.9631 22.0777 58.0521 21.6705 58.2301 21.3409C58.4081 21.0114 58.6506 20.7462 58.9574 20.5455C59.2642 20.3447 59.6127 20.1932 60.0028 20.0909C60.3968 19.9886 60.8097 19.9167 61.2415 19.875C61.7491 19.822 62.1581 19.7727 62.4688 19.7273C62.7794 19.678 63.0047 19.6061 63.1449 19.5114C63.285 19.4167 63.3551 19.2765 63.3551 19.0909V19.0568C63.3551 18.697 63.2415 18.4186 63.0142 18.2216C62.7907 18.0246 62.4725 17.9261 62.0597 17.9261C61.6241 17.9261 61.2775 18.0227 61.0199 18.2159C60.7623 18.4053 60.5919 18.6439 60.5085 18.9318L58.2699 18.75C58.3835 18.2197 58.607 17.7614 58.9403 17.375C59.2737 16.9848 59.7036 16.6856 60.2301 16.4773C60.7604 16.2652 61.3741 16.1591 62.071 16.1591C62.5559 16.1591 63.0199 16.2159 63.4631 16.3295C63.91 16.4432 64.3059 16.6193 64.6506 16.858C64.9991 17.0966 65.2737 17.4034 65.4744 17.7784C65.6752 18.1496 65.7756 18.5947 65.7756 19.1136V25H63.4801V23.7898H63.4119C63.2718 24.0625 63.0843 24.303 62.8494 24.5114C62.6146 24.7159 62.3324 24.8769 62.0028 24.9943C61.6733 25.108 61.2926 25.1648 60.8608 25.1648ZM61.554 23.4943C61.91 23.4943 62.2244 23.4242 62.4972 23.2841C62.7699 23.1402 62.9839 22.947 63.1392 22.7045C63.2945 22.4621 63.3722 22.1875 63.3722 21.8807V20.9545C63.2964 21.0038 63.1922 21.0492 63.0597 21.0909C62.9309 21.1288 62.785 21.1648 62.6222 21.1989C62.4593 21.2292 62.2964 21.2576 62.1335 21.2841C61.9706 21.3068 61.8229 21.3277 61.6903 21.3466C61.4063 21.3883 61.1581 21.4545 60.946 21.5455C60.7339 21.6364 60.5691 21.7595 60.4517 21.9148C60.3343 22.0663 60.2756 22.2557 60.2756 22.483C60.2756 22.8125 60.3949 23.0644 60.6335 23.2386C60.8759 23.4091 61.1828 23.4943 61.554 23.4943ZM75.2273 16.2727V25H72.9318V16.2727H75.2273ZM74.108 20.1023V22.0114C73.9223 22.0947 73.6913 22.1742 73.4148 22.25C73.1383 22.322 72.8485 22.3807 72.5455 22.4261C72.2424 22.4716 71.9583 22.4943 71.6932 22.4943C70.4394 22.4943 69.4527 22.2367 68.733 21.7216C68.0133 21.2027 67.6534 20.375 67.6534 19.2386V16.2614H69.9375V19.2386C69.9375 19.5758 69.9943 19.8428 70.108 20.0398C70.2254 20.2367 70.411 20.3788 70.6648 20.4659C70.9223 20.5492 71.2652 20.5909 71.6932 20.5909C72.0909 20.5909 72.4811 20.5492 72.8636 20.4659C73.2462 20.3826 73.661 20.2614 74.108 20.1023ZM79.5952 25.1648C79.0384 25.1648 78.5421 25.0682 78.1065 24.875C77.6709 24.678 77.3262 24.3883 77.0724 24.0057C76.8224 23.6193 76.6974 23.1383 76.6974 22.5625C76.6974 22.0777 76.7865 21.6705 76.9645 21.3409C77.1425 21.0114 77.3849 20.7462 77.6918 20.5455C77.9986 20.3447 78.3471 20.1932 78.7372 20.0909C79.1312 19.9886 79.544 19.9167 79.9759 19.875C80.4834 19.822 80.8925 19.7727 81.2031 19.7273C81.5137 19.678 81.7391 19.6061 81.8793 19.5114C82.0194 19.4167 82.0895 19.2765 82.0895 19.0909V19.0568C82.0895 18.697 81.9759 18.4186 81.7486 18.2216C81.5251 18.0246 81.2069 17.9261 80.794 17.9261C80.3584 17.9261 80.0118 18.0227 79.7543 18.2159C79.4967 18.4053 79.3262 18.6439 79.2429 18.9318L77.0043 18.75C77.1179 18.2197 77.3414 17.7614 77.6747 17.375C78.008 16.9848 78.438 16.6856 78.9645 16.4773C79.4948 16.2652 80.1084 16.1591 80.8054 16.1591C81.2902 16.1591 81.7543 16.2159 82.1974 16.3295C82.6444 16.4432 83.0402 16.6193 83.3849 16.858C83.7334 17.0966 84.008 17.4034 84.2088 17.7784C84.4096 18.1496 84.5099 18.5947 84.5099 19.1136V25H82.2145V23.7898H82.1463C82.0062 24.0625 81.8187 24.303 81.5838 24.5114C81.349 24.7159 81.0668 24.8769 80.7372 24.9943C80.4077 25.108 80.027 25.1648 79.5952 25.1648ZM80.2884 23.4943C80.6444 23.4943 80.9588 23.4242 81.2315 23.2841C81.5043 23.1402 81.7183 22.947 81.8736 22.7045C82.0289 22.4621 82.1065 22.1875 82.1065 21.8807V20.9545C82.0308 21.0038 81.9266 21.0492 81.794 21.0909C81.6652 21.1288 81.5194 21.1648 81.3565 21.1989C81.1937 21.2292 81.0308 21.2576 80.8679 21.2841C80.705 21.3068 80.5573 21.3277 80.4247 21.3466C80.1406 21.3883 79.8925 21.4545 79.6804 21.5455C79.4683 21.6364 79.3035 21.7595 79.1861 21.9148C79.0687 22.0663 79.0099 22.2557 79.0099 22.483C79.0099 22.8125 79.1293 23.0644 79.3679 23.2386C79.6103 23.4091 79.9171 23.4943 80.2884 23.4943ZM85.5114 18.1761V16.2727H93.4205V18.1761H90.608V25H88.3011V18.1761H85.5114ZM96.4048 18.9545H99.0128C100.168 18.9545 101.07 19.2311 101.717 19.7841C102.365 20.3333 102.689 21.0682 102.689 21.9886C102.689 22.5871 102.543 23.1136 102.251 23.5682C101.96 24.0189 101.539 24.3712 100.99 24.625C100.441 24.875 99.7817 25 99.0128 25H94.8878V16.2727H97.2003V23.0966H99.0128C99.4181 23.0966 99.7514 22.9943 100.013 22.7898C100.274 22.5852 100.407 22.3239 100.411 22.0057C100.407 21.6686 100.274 21.3939 100.013 21.1818C99.7514 20.9659 99.4181 20.858 99.0128 20.858H96.4048V18.9545ZM107.997 28.2727V16.2727H110.384V17.7386H110.491C110.598 17.5038 110.751 17.2652 110.952 17.0227C111.156 16.7765 111.421 16.572 111.747 16.4091C112.077 16.2424 112.486 16.1591 112.974 16.1591C113.611 16.1591 114.198 16.3258 114.736 16.6591C115.274 16.9886 115.704 17.4867 116.026 18.1534C116.348 18.8163 116.509 19.6477 116.509 20.6477C116.509 21.6212 116.351 22.4432 116.037 23.1136C115.726 23.7803 115.302 24.286 114.764 24.6307C114.23 24.9716 113.632 25.142 112.969 25.142C112.499 25.142 112.099 25.0644 111.77 24.9091C111.444 24.7538 111.177 24.5587 110.969 24.3239C110.76 24.0852 110.601 23.8447 110.491 23.6023H110.418V28.2727H107.997ZM110.366 20.6364C110.366 21.1553 110.438 21.608 110.582 21.9943C110.726 22.3807 110.935 22.6818 111.207 22.8977C111.48 23.1098 111.812 23.2159 112.202 23.2159C112.596 23.2159 112.929 23.108 113.202 22.892C113.474 22.6723 113.681 22.3693 113.821 21.983C113.965 21.5928 114.037 21.1439 114.037 20.6364C114.037 20.1326 113.967 19.6894 113.827 19.3068C113.687 18.9242 113.48 18.625 113.207 18.4091C112.935 18.1932 112.599 18.0852 112.202 18.0852C111.808 18.0852 111.474 18.1894 111.202 18.3977C110.933 18.6061 110.726 18.9015 110.582 19.2841C110.438 19.6667 110.366 20.1174 110.366 20.6364ZM122.099 25.1705C121.202 25.1705 120.429 24.9886 119.781 24.625C119.137 24.2576 118.641 23.7386 118.293 23.0682C117.944 22.3939 117.77 21.5966 117.77 20.6761C117.77 19.7784 117.944 18.9905 118.293 18.3125C118.641 17.6345 119.132 17.1061 119.764 16.7273C120.401 16.3485 121.147 16.1591 122.003 16.1591C122.579 16.1591 123.115 16.2519 123.611 16.4375C124.111 16.6193 124.546 16.8939 124.918 17.2614C125.293 17.6288 125.584 18.0909 125.793 18.6477C126.001 19.2008 126.105 19.8485 126.105 20.5909V21.2557H118.736V19.7557H123.827C123.827 19.4072 123.751 19.0985 123.599 18.8295C123.448 18.5606 123.238 18.3504 122.969 18.1989C122.704 18.0436 122.395 17.9659 122.043 17.9659C121.675 17.9659 121.349 18.0511 121.065 18.2216C120.785 18.3883 120.565 18.6136 120.406 18.8977C120.247 19.178 120.166 19.4905 120.162 19.8352V21.2614C120.162 21.6932 120.241 22.0663 120.401 22.3807C120.563 22.6951 120.793 22.9375 121.088 23.108C121.384 23.2784 121.734 23.3636 122.139 23.3636C122.408 23.3636 122.654 23.3258 122.878 23.25C123.101 23.1742 123.293 23.0606 123.452 22.9091C123.611 22.7576 123.732 22.572 123.815 22.3523L126.054 22.5C125.94 23.0379 125.707 23.5076 125.355 23.9091C125.007 24.3068 124.556 24.6174 124.003 24.8409C123.454 25.0606 122.819 25.1705 122.099 25.1705ZM127.236 22.5284H129.582C129.594 22.8163 129.723 23.0436 129.969 23.2102C130.215 23.3769 130.533 23.4602 130.923 23.4602C131.317 23.4602 131.649 23.3693 131.918 23.1875C132.187 23.0019 132.321 22.7367 132.321 22.392C132.321 22.1799 132.268 21.9962 132.162 21.8409C132.056 21.6818 131.908 21.5568 131.719 21.4659C131.529 21.375 131.31 21.3295 131.06 21.3295H129.804V19.7443H131.06C131.435 19.7443 131.723 19.6572 131.923 19.483C132.128 19.3087 132.23 19.0909 132.23 18.8295C132.23 18.5341 132.124 18.2973 131.912 18.1193C131.704 17.9375 131.421 17.8466 131.065 17.8466C130.705 17.8466 130.406 17.928 130.168 18.0909C129.933 18.25 129.812 18.4583 129.804 18.7159H127.469C127.476 18.1932 127.634 17.7405 127.94 17.358C128.251 16.9754 128.668 16.6799 129.19 16.4716C129.717 16.2633 130.306 16.1591 130.957 16.1591C131.67 16.1591 132.283 16.2595 132.798 16.4602C133.317 16.6572 133.715 16.9394 133.991 17.3068C134.272 17.6742 134.412 18.1117 134.412 18.6193C134.412 19.0814 134.26 19.4678 133.957 19.7784C133.654 20.089 133.23 20.3106 132.685 20.4432V20.5341C133.045 20.5568 133.37 20.6534 133.662 20.8239C133.954 20.9943 134.187 21.2292 134.361 21.5284C134.535 21.8239 134.622 22.1742 134.622 22.5795C134.622 23.1212 134.463 23.5852 134.145 23.9716C133.83 24.358 133.395 24.6553 132.838 24.8636C132.285 25.0682 131.651 25.1705 130.935 25.1705C130.238 25.1705 129.613 25.0701 129.06 24.8693C128.51 24.6648 128.073 24.3655 127.747 23.9716C127.425 23.5777 127.255 23.0966 127.236 22.5284ZM140.93 19.7216V21.642H136.197V19.7216H140.93ZM138.067 16.2727V25H135.652V16.2727H138.067ZM143.544 25.1705C142.68 25.1705 141.934 24.9773 141.305 24.5909C140.677 24.2045 140.192 23.6705 139.851 22.9886C139.514 22.3068 139.345 21.5246 139.345 20.642C139.345 19.7595 139.514 18.9811 139.851 18.3068C140.192 17.6326 140.677 17.1061 141.305 16.7273C141.934 16.3485 142.68 16.1591 143.544 16.1591C144.411 16.1591 145.158 16.3485 145.783 16.7273C146.411 17.1061 146.894 17.6326 147.232 18.3068C147.572 18.9811 147.743 19.7595 147.743 20.642C147.743 21.5246 147.572 22.3068 147.232 22.9886C146.894 23.6705 146.411 24.2045 145.783 24.5909C145.158 24.9773 144.411 25.1705 143.544 25.1705ZM143.544 23.2159C143.995 23.2159 144.358 23.1061 144.635 22.8864C144.911 22.6629 145.114 22.358 145.243 21.9716C145.372 21.5814 145.436 21.1383 145.436 20.642C145.436 20.1458 145.372 19.7064 145.243 19.3239C145.114 18.9375 144.911 18.6345 144.635 18.4148C144.358 18.1951 143.995 18.0852 143.544 18.0852C143.097 18.0852 142.733 18.1951 142.453 18.4148C142.173 18.6307 141.966 18.9299 141.834 19.3125C141.705 19.6951 141.641 20.1383 141.641 20.642C141.641 21.142 141.705 21.5852 141.834 21.9716C141.966 22.358 142.173 22.6629 142.453 22.8864C142.733 23.1061 143.097 23.2159 143.544 23.2159ZM154.547 22.3239L156.911 16.2727H158.751L155.348 25H153.74L150.416 16.2727H152.251L154.547 22.3239ZM151.7 16.2727V25H149.388V16.2727H151.7ZM157.513 25V16.2727H159.797V25H157.513ZM165.646 25.1705C164.749 25.1705 163.976 24.9886 163.328 24.625C162.684 24.2576 162.188 23.7386 161.839 23.0682C161.491 22.3939 161.317 21.5966 161.317 20.6761C161.317 19.7784 161.491 18.9905 161.839 18.3125C162.188 17.6345 162.679 17.1061 163.311 16.7273C163.947 16.3485 164.694 16.1591 165.55 16.1591C166.125 16.1591 166.661 16.2519 167.158 16.4375C167.658 16.6193 168.093 16.8939 168.464 17.2614C168.839 17.6288 169.131 18.0909 169.339 18.6477C169.548 19.2008 169.652 19.8485 169.652 20.5909V21.2557H162.283V19.7557H167.374C167.374 19.4072 167.298 19.0985 167.146 18.8295C166.995 18.5606 166.785 18.3504 166.516 18.1989C166.25 18.0436 165.942 17.9659 165.589 17.9659C165.222 17.9659 164.896 18.0511 164.612 18.2216C164.332 18.3883 164.112 18.6136 163.953 18.8977C163.794 19.178 163.713 19.4905 163.709 19.8352V21.2614C163.709 21.6932 163.788 22.0663 163.947 22.3807C164.11 22.6951 164.339 22.9375 164.635 23.108C164.93 23.2784 165.281 23.3636 165.686 23.3636C165.955 23.3636 166.201 23.3258 166.425 23.25C166.648 23.1742 166.839 23.0606 166.999 22.9091C167.158 22.7576 167.279 22.572 167.362 22.3523L169.601 22.5C169.487 23.0379 169.254 23.5076 168.902 23.9091C168.554 24.3068 168.103 24.6174 167.55 24.8409C167 25.0606 166.366 25.1705 165.646 25.1705Z" fill="#211B12"/>
<rect y="38" width="179" height="2" fill="#BF7506"/>
</svg>
